PathFileType  4	(X/Y/Z) C:\Users\antoi\Documents\MyRepositories\mobilecap\ResultsAnalysis
DataRate	CameraRate	NumFrames	NumMarkers	Units	OrigDataRate	OrigDataStartFrame	OrigNumFrames
100.0	100.0	4	51	mm	100.0	225	257
Frame#	Time	r_knee			r_shank_antsup			r_ankle			r_calc			r_5meta			r_toe			L_knee			L_shank_antsup			L_ankle			L_calc			L_5meta			L_toe			r_sh2			r_sh3			r_sh4			L_sh2			L_sh3			r_thigh1			r_thigh2			r_thigh3			r_thigh4			r_thigh5			L_thigh1			L_thigh2			L_thigh3			L_thigh4			r.ASIS			r.PSIS			L.ASIS			L.PSIS			C7			R_Shoulder			L_Shoulder			R_Sternum			L_Sternum			R_humerus			R_elbow_med			R_elbow_lat			R_forearm			R_wrist_radius			R_wrist_ulna			L_humerus			L_elbow_med			L_elbow_lat			L_forearm			L_wrist_radius			L_wrist_ulna			R_HJC			L_HJC			R_HJC_reg			L_HJC_reg			
		X1	Y1	Z1	X2	Y2	Z2	X3	Y3	Z3	X4	Y4	Z4	X5	Y5	Z5	X6	Y6	Z6	X7	Y7	Z7	X8	Y8	Z8	X9	Y9	Z9	X10	Y10	Z10	X11	Y11	Z11	X12	Y12	Z12	X13	Y13	Z13	X14	Y14	Z14	X15	Y15	Z15	X16	Y16	Z16	X17	Y17	Z17	X18	Y18	Z18	X19	Y19	Z19	X20	Y20	Z20	X21	Y21	Z21	X22	Y22	Z22	X23	Y23	Z23	X24	Y24	Z24	X25	Y25	Z25	X26	Y26	Z26	X27	Y27	Z27	X28	Y28	Z28	X29	Y29	Z29	X30	Y30	Z30	X31	Y31	Z31	X32	Y32	Z32	X33	Y33	Z33	X34	Y34	Z34	X35	Y35	Z35	X36	Y36	Z36	X37	Y37	Z37	X38	Y38	Z38	X39	Y39	Z39	X40	Y40	Z40	X41	Y41	Z41	X42	Y42	Z42	X43	Y43	Z43	X44	Y44	Z44	X45	Y45	Z45	X46	Y46	Z46	X47	Y47	Z47	X48	Y48	Z48	X49	Y49	Z49	X50	Y50	Z50	X51	Y51	Z51	

225	2.24000000	-172.62390	976.47716	-319.10478	-164.33950	828.13579	-301.45657	-267.86321	469.10439	-285.46048	-311.38391	455.23585	-360.76944	-160.80975	371.03259	-231.51617	-105.30055	392.23848	-267.44804	-161.15687	976.81957	-776.23685	-147.61796	774.63186	-781.59522	-291.94338	500.81997	-802.23810	-340.46546	493.01702	-727.90923	-224.94339	360.94287	-863.93899	-160.13011	364.01269	-818.66383	-179.52880	715.39382	-293.96995	-237.31249	837.33744	-284.60884	-256.62793	726.91816	-269.32366	-218.24943	804.20624	-826.96132	-251.08186	688.07802	-819.68516	-144.15979	1277.04148	-324.30992	-127.31055	1166.49013	-308.71722	-188.51111	1134.20832	-310.71526	-244.77459	1256.23918	-372.68947	-232.69448	1141.05945	-345.33139	-96.66866	1275.30555	-751.21052	-96.52609	1141.75607	-766.46409	-205.86152	1279.76988	-750.28485	-204.05697	1143.52787	-774.69056	-91.82437	1558.08671	-408.22075	-270.56816	1575.94926	-499.07375	-90.29530	1548.27954	-676.07257	-269.88039	1577.36987	-591.05027	-185.20467	2065.76710	-572.83282	-100.61831	2047.99551	-400.77021	-115.86670	2025.02509	-740.03181	-45.77695	1982.91180	-536.48646	-47.88994	1977.01304	-590.77940	-252.61740	1888.34245	-259.30972	-405.90718	1836.81211	-279.67020	-373.79597	1880.77536	-207.12532	-262.09883	1697.33116	-171.38659	-216.31684	1622.63450	-166.85868	-240.07836	1617.78557	-137.19560	-202.39474	1798.95898	-887.71049	-328.51300	1749.58390	-879.51576	-284.27007	1766.25585	-952.35438	-131.73586	1628.46878	-935.60555	-80.95038	1586.40987	-913.80954	-93.25213	1573.76831	-942.81579	-161.37957	1457.68622	-442.07845	-164.83547	1454.82527	-639.50411	-153.16393	1465.66020	-448.19631	-151.84114	1468.39145	-625.07347	
226	2.25000000	-168.84675	970.74037	-317.34442	-161.51389	822.34482	-299.25822	-267.51579	464.34347	-283.18196	-311.19381	449.56203	-358.27197	-160.39575	367.46727	-227.90747	-105.20531	387.99268	-264.16826	-159.25570	970.85694	-776.24630	-146.27663	768.38915	-781.43612	-291.37563	495.50870	-803.67010	-341.09725	486.15898	-729.97647	-222.08185	357.13892	-865.74502	-158.00153	360.50001	-819.47445	-177.57390	709.63094	-291.74232	-234.62592	832.08892	-283.15577	-254.93138	721.59719	-268.12127	-216.05253	798.00435	-827.07007	-249.47074	682.45700	-820.80303	-142.34849	1271.59412	-323.36495	-125.25595	1160.80080	-307.59405	-186.15933	1128.25344	-309.85127	-242.66267	1249.77936	-372.56468	-230.07621	1134.78888	-344.73446	-94.80457	1269.35169	-750.90624	-94.80083	1135.80450	-766.25350	-204.05585	1273.93778	-750.31892	-202.23625	1137.72818	-774.78293	-91.29964	1552.31610	-408.33016	-269.97949	1569.32279	-499.24603	-89.44089	1542.23329	-676.20661	-269.22887	1570.73339	-591.10783	-187.14474	2059.50023	-572.70211	-103.02245	2041.26574	-400.02272	-116.82141	2018.78943	-740.11279	-47.56361	1976.97001	-536.21517	-49.34444	1971.05698	-590.43889	-254.59471	1878.67428	-261.43989	-407.42824	1825.66214	-283.14467	-375.03640	1867.99275	-209.67269	-262.83122	1684.88390	-177.66136	-216.40480	1610.32945	-174.63686	-239.91143	1604.47011	-145.52481	-203.09062	1789.33447	-884.09598	-328.90192	1739.75020	-874.85135	-284.84691	1754.76971	-947.67232	-132.17590	1617.41317	-928.06675	-81.37834	1575.66199	-905.47242	-93.72475	1562.44317	-934.12501	-160.34565	1451.58449	-442.09183	-163.68852	1448.53539	-639.51637	-152.13257	1459.46183	-448.34240	-150.68729	1462.17718	-625.24365	
227	2.26000000	-164.70161	963.98165	-315.42087	-158.48904	815.41893	-296.83303	-267.60617	458.58398	-281.12246	-311.21323	442.99176	-356.05085	-160.55950	362.73880	-224.49881	-105.38060	382.76270	-261.04236	-157.04561	963.84611	-776.42057	-144.70327	761.14078	-781.37025	-291.09882	489.17252	-805.09589	-341.83851	478.46407	-732.28074	-219.55519	352.46270	-867.67136	-156.23678	355.96599	-820.24273	-175.58784	702.91666	-289.46622	-231.53014	825.83046	-281.38098	-253.17391	715.60308	-266.63327	-214.05267	790.52246	-826.44624	-247.96156	675.85420	-821.90838	-140.38848	1264.86342	-322.60572	-122.97568	1154.29342	-306.27113	-183.40694	1121.29328	-308.73129	-240.41112	1242.32647	-372.13829	-227.22572	1127.56633	-343.83315	-92.87693	1262.35060	-750.69316	-92.88722	1128.84411	-766.04960	-202.13885	1266.94967	-750.52378	-200.22916	1130.78203	-775.00584	-90.94412	1545.13772	-408.33635	-269.52212	1561.58570	-499.33847	-88.55829	1535.07807	-676.15209	-268.69549	1563.04690	-591.22665	-189.17914	2052.23357	-572.44594	-105.54666	2033.67302	-399.32867	-117.95717	2011.93434	-739.89457	-49.37110	1970.01968	-535.92935	-50.82296	1964.08619	-589.93593	-256.66272	1867.78633	-263.77134	-408.85403	1813.39832	-286.28072	-375.58363	1854.16101	-212.38232	-262.79976	1671.87941	-183.81451	-215.57109	1597.71069	-182.35032	-238.85981	1590.89368	-153.60000	-203.32527	1778.99407	-880.69528	-328.82420	1729.02423	-870.32961	-285.00302	1742.45574	-943.16408	-131.99105	1605.83211	-920.61488	-81.14349	1564.45998	-897.04802	-93.38897	1550.72590	-925.51783	-159.58741	1444.18862	-442.12418	-162.66450	1441.16178	-639.55312	-151.31300	1452.05740	-448.43706	-149.72239	1454.86923	-625.29752	
228	2.27000000	-160.22607	956.23216	-313.34955	-155.10505	807.39067	-294.49683	-267.94866	451.96353	-279.29399	-311.34728	435.63207	-354.16824	-161.16666	356.85831	-221.32317	-105.86556	376.45050	-257.92000	-154.50626	955.87671	-776.83831	-143.04722	752.98375	-781.72133	-291.09608	481.89074	-806.48452	-342.71785	469.97160	-734.68124	-217.34265	346.77888	-869.33079	-154.75346	350.48096	-821.12747	-173.41148	695.12555	-287.31274	-228.03031	818.50762	-279.49112	-251.04376	708.88738	-264.66616	-212.18690	782.46696	-826.32637	-246.66211	668.37114	-822.97811	-138.30184	1257.29768	-321.89305	-120.09899	1146.91988	-304.89572	-180.26057	1113.32272	-307.38651	-238.04433	1233.87774	-371.40583	-224.15753	1119.31275	-342.69964	-90.87383	1254.35622	-750.64269	-90.70767	1120.81751	-765.89172	-200.14772	1258.83940	-750.90904	-198.06873	1122.61855	-775.29469	-91.00261	1536.99747	-407.98046	-269.31735	1552.75198	-499.40575	-87.66540	1527.15966	-675.66114	-268.25642	1554.34933	-591.39539	-191.17259	2043.93522	-572.33675	-108.20163	2025.13395	-398.78860	-119.50891	2004.00536	-739.62555	-51.12332	1962.18946	-535.33752	-52.37638	1956.12518	-589.27909	-258.68571	1854.89025	-265.76487	-410.04833	1799.89099	-289.22938	-376.72440	1839.48356	-215.10536	-261.97059	1658.23535	-189.88411	-213.83039	1584.73365	-189.79404	-237.02704	1577.14868	-161.06670	-203.17685	1767.68806	-877.21796	-328.26564	1717.24376	-865.90246	-284.43647	1729.46268	-939.40664	-131.14032	1593.68097	-913.25226	-80.20070	1552.73237	-888.56347	-92.27435	1538.50839	-917.05082	-159.10288	1435.78843	-441.99644	-161.53036	1432.91641	-639.43690	-150.73686	1443.65594	-448.34220	-148.69825	1446.72534	-625.10587	
